<svg width="400" height="250" viewBox="0 0 400 250" fill="none" xmlns="http://www.w3.org/2000/svg">
<filter id="filter0_d_1_2" x="0" y="0" width="400" height="250" filterUnits="userSpaceOnUse" color-interpolation-filters="sRGB">
<feFlood flood-opacity="0" result="BackgroundImageFix"/>
<feColorMatrix in="SourceAlpha" type="matrix" values="0 0 0 0 0 0 0 0 0 0 0 0 0 0 0 0 0 0 127 0" result="hardAlpha"/>
<feOffset dy="4"/>
<feGaussianBlur stdDeviation="15"/>
<feComposite in2="hardAlpha" operator="out"/>
<feColorMatrix type="matrix" values="0 0 0 0 0 0 0 0 0 0 0 0 0 0 0 0 0 0 0.15 0"/>
<feBlend mode="normal" in2="BackgroundImageFix" result="effect1_dropShadow_1_2"/>
<feBlend mode="normal" in="SourceGraphic" in2="effect1_dropShadow_1_2" result="shape"/>
</filter>
<g filter="url(#filter0_d_1_2)">
<path d="M110 200H290C323.137 200 350 173.137 350 140C350 109.07 326.4 84 300 84C298.6 84 297.2 84.08 295.8 84.24C289.4 55.6 264.2 35 235 35C205.8 35 180.6 55.6 174.2 84.24C172.8 84.08 171.4 84 170 84C143.6 84 120 109.07 120 140C120 141.6 120.08 143.18 120.24 144.74C100.64 149.2 86 166.8 86 188C86 194.627 91.3726 200 98 200H110Z" fill="white"/>
</g>
</svg>
